<mxfile host="app.diagrams.net" modified="2023-01-27T18:47:06.364Z" agent="5.0 (Windows NT 10.0; Win64; x64) AppleWebKit/537.36 (KHTML, like Gecko) Chrome/109.0.0.0 Safari/537.36" etag="zuM6zExdeeMZdqvq0BYD" version="20.8.13" type="github">
  <diagram name="Strona-1" id="AGx7KBbgk8vtOTZqrYgu">
    <mxGraphModel dx="1562" dy="1652" grid="1" gridSize="10" guides="1" tooltips="1" connect="1" arrows="1" fold="1" page="1" pageScale="1" pageWidth="827" pageHeight="1169" math="0" shadow="0">
      <root>
        <mxCell id="0" />
        <mxCell id="1" parent="0" />
        <mxCell id="UrSTXROeSMlTnpzvxmtJ-1" value="Daj mi jeść" style="whiteSpace=wrap;html=1;aspect=fixed;" parent="1" vertex="1">
          <mxGeometry x="10" y="-220" width="80" height="80" as="geometry" />
        </mxCell>
        <mxCell id="vQD5Sf6ieOIErblBQThO-3" value="Dodaj do stanu magazynowego" style="whiteSpace=wrap;html=1;" vertex="1" parent="1">
          <mxGeometry x="70" y="-430" width="140" height="60" as="geometry" />
        </mxCell>
        <mxCell id="vQD5Sf6ieOIErblBQThO-4" style="edgeStyle=orthogonalEdgeStyle;rounded=0;orthogonalLoop=1;jettySize=auto;html=1;exitX=0.5;exitY=1;exitDx=0;exitDy=0;" edge="1" parent="1" source="UrSTXROeSMlTnpzvxmtJ-1" target="UrSTXROeSMlTnpzvxmtJ-1">
          <mxGeometry relative="1" as="geometry" />
        </mxCell>
        <mxCell id="vQD5Sf6ieOIErblBQThO-5" value="Proszę o więcej" style="whiteSpace=wrap;html=1;aspect=fixed;" vertex="1" parent="1">
          <mxGeometry x="100" y="-220" width="80" height="80" as="geometry" />
        </mxCell>
        <mxCell id="vQD5Sf6ieOIErblBQThO-6" value="Dej, dej dej" style="whiteSpace=wrap;html=1;aspect=fixed;" vertex="1" parent="1">
          <mxGeometry x="190" y="-220" width="80" height="80" as="geometry" />
        </mxCell>
        <mxCell id="vQD5Sf6ieOIErblBQThO-16" value="" style="edgeStyle=orthogonalEdgeStyle;rounded=0;orthogonalLoop=1;jettySize=auto;html=1;" edge="1" parent="1" source="vQD5Sf6ieOIErblBQThO-7" target="UrSTXROeSMlTnpzvxmtJ-1">
          <mxGeometry relative="1" as="geometry" />
        </mxCell>
        <mxCell id="vQD5Sf6ieOIErblBQThO-7" value="składnik 1" style="whiteSpace=wrap;html=1;aspect=fixed;" vertex="1" parent="1">
          <mxGeometry x="20" y="-60" width="60" height="60" as="geometry" />
        </mxCell>
        <mxCell id="vQD5Sf6ieOIErblBQThO-10" value="składnik 2" style="whiteSpace=wrap;html=1;aspect=fixed;" vertex="1" parent="1">
          <mxGeometry x="90" y="-60" width="60" height="60" as="geometry" />
        </mxCell>
        <mxCell id="vQD5Sf6ieOIErblBQThO-12" value="składnik 3" style="whiteSpace=wrap;html=1;aspect=fixed;" vertex="1" parent="1">
          <mxGeometry x="170" y="-60" width="60" height="60" as="geometry" />
        </mxCell>
        <mxCell id="vQD5Sf6ieOIErblBQThO-13" value="składnik 4" style="whiteSpace=wrap;html=1;aspect=fixed;" vertex="1" parent="1">
          <mxGeometry x="250" y="-60" width="60" height="60" as="geometry" />
        </mxCell>
        <mxCell id="vQD5Sf6ieOIErblBQThO-14" value="" style="endArrow=classic;html=1;rounded=0;entryX=0.5;entryY=1;entryDx=0;entryDy=0;exitX=0.5;exitY=0;exitDx=0;exitDy=0;" edge="1" parent="1" source="vQD5Sf6ieOIErblBQThO-7" target="UrSTXROeSMlTnpzvxmtJ-1">
          <mxGeometry width="50" height="50" relative="1" as="geometry">
            <mxPoint x="390" y="-100" as="sourcePoint" />
            <mxPoint x="440" y="-150" as="targetPoint" />
          </mxGeometry>
        </mxCell>
        <mxCell id="vQD5Sf6ieOIErblBQThO-17" value="" style="endArrow=classic;html=1;rounded=0;exitX=0.5;exitY=0;exitDx=0;exitDy=0;" edge="1" parent="1" source="vQD5Sf6ieOIErblBQThO-10">
          <mxGeometry width="50" height="50" relative="1" as="geometry">
            <mxPoint x="60" y="-50" as="sourcePoint" />
            <mxPoint x="50" y="-140" as="targetPoint" />
            <Array as="points">
              <mxPoint x="120" y="-90" />
              <mxPoint x="50" y="-90" />
            </Array>
          </mxGeometry>
        </mxCell>
        <mxCell id="vQD5Sf6ieOIErblBQThO-18" value="" style="endArrow=classic;html=1;rounded=0;exitX=0.5;exitY=0;exitDx=0;exitDy=0;entryX=0.5;entryY=1;entryDx=0;entryDy=0;" edge="1" parent="1" source="vQD5Sf6ieOIErblBQThO-12" target="vQD5Sf6ieOIErblBQThO-5">
          <mxGeometry width="50" height="50" relative="1" as="geometry">
            <mxPoint x="130" y="-50" as="sourcePoint" />
            <mxPoint x="60" y="-130" as="targetPoint" />
            <Array as="points">
              <mxPoint x="200" y="-100" />
              <mxPoint x="140" y="-100" />
            </Array>
          </mxGeometry>
        </mxCell>
        <mxCell id="vQD5Sf6ieOIErblBQThO-19" value="" style="endArrow=classic;html=1;rounded=0;exitX=0.5;exitY=0;exitDx=0;exitDy=0;entryX=0.5;entryY=1;entryDx=0;entryDy=0;" edge="1" parent="1" source="vQD5Sf6ieOIErblBQThO-13">
          <mxGeometry width="50" height="50" relative="1" as="geometry">
            <mxPoint x="290" y="-60" as="sourcePoint" />
            <mxPoint x="230" y="-140" as="targetPoint" />
            <Array as="points">
              <mxPoint x="280" y="-100" />
              <mxPoint x="230" y="-100" />
            </Array>
          </mxGeometry>
        </mxCell>
        <mxCell id="vQD5Sf6ieOIErblBQThO-20" value="" style="endArrow=none;dashed=1;html=1;rounded=0;entryX=0.5;entryY=1;entryDx=0;entryDy=0;" edge="1" parent="1" target="vQD5Sf6ieOIErblBQThO-21">
          <mxGeometry width="50" height="50" relative="1" as="geometry">
            <mxPoint x="50" y="-220" as="sourcePoint" />
            <mxPoint x="50" y="-280" as="targetPoint" />
            <Array as="points">
              <mxPoint x="50" y="-240" />
              <mxPoint x="140" y="-240" />
            </Array>
          </mxGeometry>
        </mxCell>
        <mxCell id="vQD5Sf6ieOIErblBQThO-24" value="" style="edgeStyle=orthogonalEdgeStyle;rounded=0;orthogonalLoop=1;jettySize=auto;html=1;dashed=1;endArrow=block;endFill=0;" edge="1" parent="1" source="vQD5Sf6ieOIErblBQThO-21" target="vQD5Sf6ieOIErblBQThO-3">
          <mxGeometry relative="1" as="geometry" />
        </mxCell>
        <mxCell id="vQD5Sf6ieOIErblBQThO-21" value="Nadaj numer serii" style="whiteSpace=wrap;html=1;" vertex="1" parent="1">
          <mxGeometry x="70" y="-330" width="140" height="60" as="geometry" />
        </mxCell>
        <mxCell id="vQD5Sf6ieOIErblBQThO-22" value="" style="endArrow=none;dashed=1;html=1;rounded=0;" edge="1" parent="1">
          <mxGeometry width="50" height="50" relative="1" as="geometry">
            <mxPoint x="230" y="-220" as="sourcePoint" />
            <mxPoint x="140" y="-270" as="targetPoint" />
            <Array as="points">
              <mxPoint x="230" y="-240" />
              <mxPoint x="140" y="-240" />
            </Array>
          </mxGeometry>
        </mxCell>
        <mxCell id="vQD5Sf6ieOIErblBQThO-23" value="" style="endArrow=block;dashed=1;html=1;rounded=0;entryX=0.5;entryY=1;entryDx=0;entryDy=0;endFill=0;" edge="1" parent="1" target="vQD5Sf6ieOIErblBQThO-21">
          <mxGeometry width="50" height="50" relative="1" as="geometry">
            <mxPoint x="140" y="-220" as="sourcePoint" />
            <mxPoint x="50" y="-270" as="targetPoint" />
            <Array as="points" />
          </mxGeometry>
        </mxCell>
      </root>
    </mxGraphModel>
  </diagram>
</mxfile>
